<mxfile host="app.diagrams.net" agent="Mozilla/5.0 (X11; Linux x86_64) AppleWebKit/537.36 (KHTML, like Gecko) Chrome/127.0.0.0 Safari/537.36" version="24.7.6">
  <diagram name="Page-1" id="u01eL8T2LCdluOudwLFy">
    <mxGraphModel dx="1111" dy="578" grid="1" gridSize="10" guides="1" tooltips="1" connect="1" arrows="1" fold="1" page="1" pageScale="1" pageWidth="850" pageHeight="1100" math="0" shadow="0">
      <root>
        <mxCell id="0" />
        <mxCell id="1" parent="0" />
        <mxCell id="AD_UT4TeYZ6WEzwYOdvF-2" value="UserManager" style="swimlane;fontStyle=0;childLayout=stackLayout;horizontal=1;startSize=30;horizontalStack=0;resizeParent=1;resizeParentMax=0;resizeLast=0;collapsible=1;marginBottom=0;whiteSpace=wrap;html=1;" parent="1" vertex="1">
          <mxGeometry x="80" y="103" width="310" height="140" as="geometry" />
        </mxCell>
        <mxCell id="AD_UT4TeYZ6WEzwYOdvF-3" value="+users: User&amp;lt;list&amp;gt;&lt;div&gt;+register(username: String, password: String)&lt;/div&gt;&lt;div&gt;+authenticate(email: String, password: String)&lt;/div&gt;&lt;div&gt;+getUser()&lt;/div&gt;&lt;div&gt;+updateUser()&lt;/div&gt;&lt;div&gt;+deleteUser()&lt;/div&gt;" style="text;strokeColor=none;fillColor=none;align=left;verticalAlign=middle;spacingLeft=4;spacingRight=4;overflow=hidden;points=[[0,0.5],[1,0.5]];portConstraint=eastwest;rotatable=0;whiteSpace=wrap;html=1;" parent="AD_UT4TeYZ6WEzwYOdvF-2" vertex="1">
          <mxGeometry y="30" width="310" height="110" as="geometry" />
        </mxCell>
        <mxCell id="AD_UT4TeYZ6WEzwYOdvF-14" value="Challenge" style="swimlane;fontStyle=0;childLayout=stackLayout;horizontal=1;startSize=30;horizontalStack=0;resizeParent=1;resizeParentMax=0;resizeLast=0;collapsible=1;marginBottom=0;whiteSpace=wrap;html=1;" parent="1" vertex="1">
          <mxGeometry x="440" y="395" width="140" height="150" as="geometry" />
        </mxCell>
        <mxCell id="AD_UT4TeYZ6WEzwYOdvF-15" value="+title: String&lt;div&gt;+description: String&lt;/div&gt;&lt;div&gt;+difficulty: int&lt;/div&gt;&lt;div&gt;+code: String&lt;/div&gt;&lt;div&gt;+date_created: Date&lt;/div&gt;&lt;div&gt;+author: User&lt;/div&gt;&lt;div&gt;&lt;br&gt;&lt;/div&gt;" style="text;strokeColor=none;fillColor=none;align=left;verticalAlign=middle;spacingLeft=4;spacingRight=4;overflow=hidden;points=[[0,0.5],[1,0.5]];portConstraint=eastwest;rotatable=0;whiteSpace=wrap;html=1;" parent="AD_UT4TeYZ6WEzwYOdvF-14" vertex="1">
          <mxGeometry y="30" width="140" height="120" as="geometry" />
        </mxCell>
        <mxCell id="AD_UT4TeYZ6WEzwYOdvF-22" value="userSolution" style="swimlane;fontStyle=0;childLayout=stackLayout;horizontal=1;startSize=30;horizontalStack=0;resizeParent=1;resizeParentMax=0;resizeLast=0;collapsible=1;marginBottom=0;whiteSpace=wrap;html=1;" parent="1" vertex="1">
          <mxGeometry x="230" y="390" width="170" height="160" as="geometry" />
        </mxCell>
        <mxCell id="AD_UT4TeYZ6WEzwYOdvF-23" value="+title: String&lt;div&gt;+description: String&lt;/div&gt;&lt;div&gt;+difficulty: int&lt;/div&gt;&lt;div&gt;+code: String&lt;/div&gt;&lt;div&gt;+submit()&lt;/div&gt;&lt;div&gt;+viewChallengeSolution()&lt;/div&gt;" style="text;strokeColor=none;fillColor=none;align=left;verticalAlign=middle;spacingLeft=4;spacingRight=4;overflow=hidden;points=[[0,0.5],[1,0.5]];portConstraint=eastwest;rotatable=0;whiteSpace=wrap;html=1;" parent="AD_UT4TeYZ6WEzwYOdvF-22" vertex="1">
          <mxGeometry y="30" width="170" height="130" as="geometry" />
        </mxCell>
        <mxCell id="AD_UT4TeYZ6WEzwYOdvF-26" value="TestCase" style="swimlane;fontStyle=0;childLayout=stackLayout;horizontal=1;startSize=30;horizontalStack=0;resizeParent=1;resizeParentMax=0;resizeLast=0;collapsible=1;marginBottom=0;whiteSpace=wrap;html=1;" parent="1" vertex="1">
          <mxGeometry x="20" y="405" width="160" height="130" as="geometry" />
        </mxCell>
        <mxCell id="AD_UT4TeYZ6WEzwYOdvF-27" value="+challenge: Challenge&lt;div&gt;+input_data: String&lt;/div&gt;&lt;div&gt;+expected_output: String&amp;nbsp;&lt;/div&gt;&lt;div&gt;+run_testCase()&lt;/div&gt;&lt;div&gt;+updateScore()&lt;/div&gt;" style="text;strokeColor=none;fillColor=none;align=left;verticalAlign=middle;spacingLeft=4;spacingRight=4;overflow=hidden;points=[[0,0.5],[1,0.5]];portConstraint=eastwest;rotatable=0;whiteSpace=wrap;html=1;" parent="AD_UT4TeYZ6WEzwYOdvF-26" vertex="1">
          <mxGeometry y="30" width="160" height="100" as="geometry" />
        </mxCell>
        <mxCell id="tykuztvJxobjOQb9VciZ-1" value="User" style="swimlane;fontStyle=0;childLayout=stackLayout;horizontal=1;startSize=30;horizontalStack=0;resizeParent=1;resizeParentMax=0;resizeLast=0;collapsible=1;marginBottom=0;whiteSpace=wrap;html=1;" parent="1" vertex="1">
          <mxGeometry x="540" y="73" width="140" height="200" as="geometry" />
        </mxCell>
        <mxCell id="tykuztvJxobjOQb9VciZ-2" value="+ user: String&lt;div&gt;+ pass: String&lt;/div&gt;&lt;div&gt;+ email: String&lt;/div&gt;&lt;div&gt;+ userID: int&lt;/div&gt;&lt;div&gt;+ date_joined: Date&lt;/div&gt;&lt;div&gt;&lt;br&gt;&lt;/div&gt;&lt;div&gt;+ getPosition() : int&lt;/div&gt;&lt;div&gt;+ getScore() : int&lt;/div&gt;&lt;div&gt;+ register()&lt;/div&gt;&lt;div&gt;+ login()&lt;/div&gt;" style="text;strokeColor=none;fillColor=none;align=left;verticalAlign=middle;spacingLeft=4;spacingRight=4;overflow=hidden;points=[[0,0.5],[1,0.5]];portConstraint=eastwest;rotatable=0;whiteSpace=wrap;html=1;" parent="tykuztvJxobjOQb9VciZ-1" vertex="1">
          <mxGeometry y="30" width="140" height="170" as="geometry" />
        </mxCell>
        <mxCell id="tykuztvJxobjOQb9VciZ-5" value="userProfile extends User" style="swimlane;fontStyle=0;childLayout=stackLayout;horizontal=1;startSize=30;horizontalStack=0;resizeParent=1;resizeParentMax=0;resizeLast=0;collapsible=1;marginBottom=0;whiteSpace=wrap;html=1;" parent="1" vertex="1">
          <mxGeometry x="770" y="88" width="160" height="170" as="geometry" />
        </mxCell>
        <mxCell id="tykuztvJxobjOQb9VciZ-6" value="+ getUser() : String&lt;div&gt;+ getEmail() : String&lt;/div&gt;&lt;div&gt;+ getPosition() : int&lt;/div&gt;&lt;div&gt;+ getDateJoined() : Date&lt;/div&gt;&lt;div&gt;+ getScore() : int&lt;br&gt;&lt;div&gt;&lt;br&gt;&lt;/div&gt;&lt;/div&gt;" style="text;strokeColor=none;fillColor=none;align=left;verticalAlign=middle;spacingLeft=4;spacingRight=4;overflow=hidden;points=[[0,0.5],[1,0.5]];portConstraint=eastwest;rotatable=0;whiteSpace=wrap;html=1;" parent="tykuztvJxobjOQb9VciZ-5" vertex="1">
          <mxGeometry y="30" width="160" height="140" as="geometry" />
        </mxCell>
        <mxCell id="tykuztvJxobjOQb9VciZ-9" value="Discussion" style="swimlane;fontStyle=0;childLayout=stackLayout;horizontal=1;startSize=30;horizontalStack=0;resizeParent=1;resizeParentMax=0;resizeLast=0;collapsible=1;marginBottom=0;whiteSpace=wrap;html=1;" parent="1" vertex="1">
          <mxGeometry x="780" y="330" width="140" height="180" as="geometry" />
        </mxCell>
        <mxCell id="tykuztvJxobjOQb9VciZ-10" value="+ title: String&lt;div&gt;+ comment: String&lt;/div&gt;&lt;div&gt;+ date_posted: Date&lt;/div&gt;&lt;div&gt;&lt;br&gt;&lt;/div&gt;&lt;div&gt;+ postComment()&lt;/div&gt;&lt;div&gt;+ viewDiscussion()&lt;/div&gt;&lt;div&gt;+ getUser() : String&lt;/div&gt;" style="text;strokeColor=none;fillColor=none;align=left;verticalAlign=middle;spacingLeft=4;spacingRight=4;overflow=hidden;points=[[0,0.5],[1,0.5]];portConstraint=eastwest;rotatable=0;whiteSpace=wrap;html=1;" parent="tykuztvJxobjOQb9VciZ-9" vertex="1">
          <mxGeometry y="30" width="140" height="150" as="geometry" />
        </mxCell>
        <mxCell id="VJJSbOsw-ExNcY2Q_p88-12" value="" style="endArrow=none;html=1;rounded=0;exitX=1;exitY=0.5;exitDx=0;exitDy=0;entryX=0;entryY=0.5;entryDx=0;entryDy=0;" edge="1" parent="1" source="AD_UT4TeYZ6WEzwYOdvF-3" target="tykuztvJxobjOQb9VciZ-2">
          <mxGeometry width="50" height="50" relative="1" as="geometry">
            <mxPoint x="450" y="373" as="sourcePoint" />
            <mxPoint x="500" y="323" as="targetPoint" />
          </mxGeometry>
        </mxCell>
        <mxCell id="VJJSbOsw-ExNcY2Q_p88-13" value="" style="endArrow=block;dashed=1;endFill=0;endSize=12;html=1;rounded=0;exitX=0.5;exitY=0;exitDx=0;exitDy=0;entryX=0.5;entryY=0;entryDx=0;entryDy=0;" edge="1" parent="1" source="AD_UT4TeYZ6WEzwYOdvF-2" target="tykuztvJxobjOQb9VciZ-1">
          <mxGeometry width="160" relative="1" as="geometry">
            <mxPoint x="390" y="343" as="sourcePoint" />
            <mxPoint x="550" y="343" as="targetPoint" />
            <Array as="points">
              <mxPoint x="235" y="33" />
              <mxPoint x="420" y="33" />
              <mxPoint x="610" y="33" />
            </Array>
          </mxGeometry>
        </mxCell>
        <mxCell id="VJJSbOsw-ExNcY2Q_p88-14" style="edgeStyle=orthogonalEdgeStyle;rounded=0;orthogonalLoop=1;jettySize=auto;html=1;entryX=0;entryY=0.5;entryDx=0;entryDy=0;" edge="1" parent="1" source="tykuztvJxobjOQb9VciZ-2" target="tykuztvJxobjOQb9VciZ-6">
          <mxGeometry relative="1" as="geometry" />
        </mxCell>
        <mxCell id="VJJSbOsw-ExNcY2Q_p88-15" value="" style="endArrow=diamondThin;endFill=1;endSize=24;html=1;rounded=0;entryX=0.484;entryY=1.03;entryDx=0;entryDy=0;entryPerimeter=0;exitX=0.536;exitY=1.029;exitDx=0;exitDy=0;exitPerimeter=0;" edge="1" parent="1" source="AD_UT4TeYZ6WEzwYOdvF-23" target="AD_UT4TeYZ6WEzwYOdvF-27">
          <mxGeometry width="160" relative="1" as="geometry">
            <mxPoint x="390" y="280" as="sourcePoint" />
            <mxPoint x="550" y="280" as="targetPoint" />
            <Array as="points">
              <mxPoint x="321" y="610" />
              <mxPoint x="100" y="610" />
            </Array>
          </mxGeometry>
        </mxCell>
        <mxCell id="VJJSbOsw-ExNcY2Q_p88-16" style="edgeStyle=orthogonalEdgeStyle;rounded=0;orthogonalLoop=1;jettySize=auto;html=1;" edge="1" parent="1" source="tykuztvJxobjOQb9VciZ-6" target="tykuztvJxobjOQb9VciZ-10">
          <mxGeometry relative="1" as="geometry">
            <Array as="points">
              <mxPoint x="950" y="188" />
              <mxPoint x="950" y="435" />
            </Array>
          </mxGeometry>
        </mxCell>
        <mxCell id="VJJSbOsw-ExNcY2Q_p88-17" style="edgeStyle=orthogonalEdgeStyle;rounded=0;orthogonalLoop=1;jettySize=auto;html=1;entryX=0;entryY=0.5;entryDx=0;entryDy=0;" edge="1" parent="1" source="AD_UT4TeYZ6WEzwYOdvF-23" target="AD_UT4TeYZ6WEzwYOdvF-15">
          <mxGeometry relative="1" as="geometry" />
        </mxCell>
        <mxCell id="VJJSbOsw-ExNcY2Q_p88-18" value="" style="endArrow=none;html=1;rounded=0;exitX=0.5;exitY=0;exitDx=0;exitDy=0;entryX=0.55;entryY=1.014;entryDx=0;entryDy=0;entryPerimeter=0;" edge="1" parent="1" source="AD_UT4TeYZ6WEzwYOdvF-22" target="tykuztvJxobjOQb9VciZ-2">
          <mxGeometry width="50" height="50" relative="1" as="geometry">
            <mxPoint x="400" y="198" as="sourcePoint" />
            <mxPoint x="550" y="198" as="targetPoint" />
            <Array as="points">
              <mxPoint x="315" y="320" />
              <mxPoint x="617" y="320" />
            </Array>
          </mxGeometry>
        </mxCell>
        <mxCell id="VJJSbOsw-ExNcY2Q_p88-19" value="" style="endArrow=block;dashed=1;endFill=0;endSize=12;html=1;rounded=0;exitX=0.5;exitY=0;exitDx=0;exitDy=0;entryX=0.334;entryY=1.006;entryDx=0;entryDy=0;entryPerimeter=0;" edge="1" parent="1" source="AD_UT4TeYZ6WEzwYOdvF-26" target="tykuztvJxobjOQb9VciZ-2">
          <mxGeometry width="160" relative="1" as="geometry">
            <mxPoint x="450" y="270" as="sourcePoint" />
            <mxPoint x="620" y="60" as="targetPoint" />
            <Array as="points">
              <mxPoint x="100" y="350" />
              <mxPoint x="450" y="350" />
              <mxPoint x="587" y="350" />
            </Array>
          </mxGeometry>
        </mxCell>
      </root>
    </mxGraphModel>
  </diagram>
</mxfile>
